<?xml version="1.0" encoding="UTF-8" standalone="no"?>
<!-- Created with Inkscape (http://www.inkscape.org/) -->

<svg
   width="140mm"
   height="140mm"
   viewBox="0 0 140 140"
   version="1.1"
   id="svg5"
   inkscape:version="1.2.1 (9c6d41e410, 2022-07-14)"
   sodipodi:docname="SSLUP_Logo_Inkscape.svg"
   xml:space="preserve"
   inkscape:export-filename="logo.svg"
   inkscape:export-xdpi="96"
   inkscape:export-ydpi="96"
   xmlns:inkscape="http://www.inkscape.org/namespaces/inkscape"
   xmlns:sodipodi="http://sodipodi.sourceforge.net/DTD/sodipodi-0.dtd"
   xmlns:xlink="http://www.w3.org/1999/xlink"
   xmlns="http://www.w3.org/2000/svg"
   xmlns:svg="http://www.w3.org/2000/svg"><sodipodi:namedview
     id="namedview7"
     pagecolor="#ffffff"
     bordercolor="#666666"
     borderopacity="1.0"
     inkscape:showpageshadow="2"
     inkscape:pageopacity="0.0"
     inkscape:pagecheckerboard="0"
     inkscape:deskcolor="#d1d1d1"
     inkscape:document-units="mm"
     showgrid="false"
     inkscape:zoom="1.0444209"
     inkscape:cx="-24.415444"
     inkscape:cy="346.12482"
     inkscape:window-width="2560"
     inkscape:window-height="1351"
     inkscape:window-x="1911"
     inkscape:window-y="-9"
     inkscape:window-maximized="1"
     inkscape:current-layer="layer2" /><defs
     id="defs2"><linearGradient
       inkscape:collect="always"
       id="linearGradient929"><stop
         style="stop-color:#3498db;stop-opacity:1;"
         offset="0"
         id="stop925" /><stop
         style="stop-color:#21618c;stop-opacity:1;"
         offset="1"
         id="stop927" /></linearGradient><inkscape:path-effect
       effect="fillet_chamfer"
       id="path-effect236"
       is_visible="true"
       lpeversion="1"
       nodesatellites_param="F,0,0,1,0,2.6458333,0,1 @ F,0,0,1,0,2.6458333,0,1 @ F,0,0,1,0,2.6458333,0,1 @ F,0,0,1,0,2.6458333,0,1 @ F,0,0,1,0,2.6458333,0,1 @ F,0,0,1,0,2.6458333,0,1"
       unit="px"
       method="auto"
       mode="F"
       radius="10"
       chamfer_steps="1"
       flexible="false"
       use_knot_distance="true"
       apply_no_radius="true"
       apply_with_radius="true"
       only_selected="false"
       hide_knots="false" /><linearGradient
       inkscape:collect="always"
       xlink:href="#linearGradient929"
       id="linearGradient931"
       x1="1.0133215"
       y1="46.106091"
       x2="100.82541"
       y2="46.106091"
       gradientUnits="userSpaceOnUse" /><filter
       style="color-interpolation-filters:sRGB"
       inkscape:label="Drop Shadow"
       id="filter20743"
       x="-0.072146298"
       y="-0.076551984"
       width="1.1743536"
       height="1.1399054"><feFlood
         flood-opacity="0.498039"
         flood-color="rgb(0,0,0)"
         result="flood"
         id="feFlood20733" /><feComposite
         in="flood"
         in2="SourceGraphic"
         operator="in"
         result="composite1"
         id="feComposite20735" /><feGaussianBlur
         in="composite1"
         stdDeviation="3"
         result="blur"
         id="feGaussianBlur20737" /><feOffset
         dx="3"
         dy="-1.5"
         result="offset"
         id="feOffset20739" /><feComposite
         in="SourceGraphic"
         in2="offset"
         operator="over"
         result="composite2"
         id="feComposite20741" /></filter></defs><g
     inkscape:label="Ebene 1"
     inkscape:groupmode="layer"
     id="layer1"
     transform="translate(8.7567849,6.7185259)"><path
       sodipodi:type="star"
       style="fill:url(#linearGradient931);fill-opacity:1;stroke:#000000;stroke-width:0;stroke-opacity:1;filter:url(#filter20743)"
       id="path234"
       inkscape:flatsided="true"
       sodipodi:sides="6"
       sodipodi:cx="50.919365"
       sodipodi:cy="46.106091"
       sodipodi:r1="57.533283"
       sodipodi:r2="49.825287"
       sodipodi:arg1="0.52078456"
       sodipodi:arg2="1.0443833"
       inkscape:rounded="0"
       inkscape:randomized="0"
       d="M 98.537781,76.061759 53.368903,102.30979 a 4.5827177,4.5827177 179.83876 0 1 -4.5827,0.0129 L 3.4703056,76.3293 A 4.5827177,4.5827177 59.838757 0 1 1.1677869,72.367014 L 1.0207679,20.125605 A 4.5827177,4.5827177 119.83876 0 1 3.3009488,16.150422 L 48.469827,-10.097605 a 4.5827177,4.5827177 179.83876 0 1 4.5827,-0.0129 l 45.315897,25.993383 a 4.5827177,4.5827177 59.838757 0 1 2.302516,3.962286 l 0.14702,52.24141 a 4.5827177,4.5827177 119.83876 0 1 -2.280179,3.975182 z"
       inkscape:path-effect="#path-effect236"
       transform="rotate(60,41.307456,61.960467)" /></g><g
     inkscape:groupmode="layer"
     id="layer2"
     inkscape:label="Ebene 2"
     transform="translate(8.7567849,6.7185259)"><g
       data-name="12-Lock"
       id="g4927"
       transform="matrix(1.33305,0,0,1.33305,39.914415,41.952674)"><path
         d="M 23,12 V 8.71 A 6.72,6.72 0 0 0 16.29,2 H 15.71 A 6.72,6.72 0 0 0 9,8.71 V 12 a 3,3 0 0 0 -3,3 v 9.3 a 5.71,5.71 0 0 0 5.7,5.7 h 8.6 A 5.71,5.71 0 0 0 26,24.3 V 15 A 3,3 0 0 0 23,12 Z M 11,8.71 A 4.71,4.71 0 0 1 15.71,4 h 0.58 A 4.71,4.71 0 0 1 21,8.71 V 12 H 11 Z M 24,24.3 A 3.7,3.7 0 0 1 20.3,28 H 11.7 A 3.7,3.7 0 0 1 8,24.3 V 15 a 1,1 0 0 1 1,-1 h 14 a 1,1 0 0 1 1,1 z"
         fill="#ffffff"
         data-original="#fff"
         class=""
         id="path4923" /><path
         d="M 17,20.72 V 24 a 1,1 0 0 1 -2,0 v -3.28 a 2,2 0 1 1 2,0 z"
         fill="#ffffff"
         data-original="#fff"
         class=""
         id="path4925" /></g><g
       style="fill-rule:evenodd"
       id="g12275"
       transform="matrix(3.4894831,0,0,3.4894831,19.369413,21.408551)"><g
         id="g12264"><path
           d="m 12,20.95 c -4.945,0 -8.96,-4.015 -8.96,-8.96 A 8.954,8.954 0 0 1 6.85,4.659 0.75004967,0.75004967 0 0 0 5.987,3.432 10.451,10.451 0 0 0 1.54,11.99 c 0,5.773 4.687,10.46 10.46,10.46 a 0.75,0.75 0 0 0 0,-1.5 z M 12.578,3.048 c 4.676,0.298 8.382,4.191 8.382,8.942 a 8.94,8.94 0 0 1 -3.153,6.821 0.75014882,0.75014882 0 0 0 0.973,1.142 10.437,10.437 0 0 0 3.68,-7.963 C 22.46,6.443 18.133,1.899 12.673,1.551 a 0.75000567,0.75000567 0 0 0 -0.095,1.497 z"
           fill="#ffffff"
           data-original="#fff"
           class=""
           id="path12260" /><path
           d="m 21.29,19.185 h -3.244 v -3.244 a 0.75,0.75 0 0 0 -1.5,0 v 3.994 c 0,0.414 0.336,0.75 0.75,0.75 h 3.994 a 0.75,0.75 0 0 0 0,-1.5 z M 3.29,3.913 h 3.243 v 3.243 a 0.75,0.75 0 0 0 1.5,0 V 3.163 A 0.75,0.75 0 0 0 7.283,2.413 H 3.29 a 0.75,0.75 0 0 0 0,1.5 z"
           fill="#ffffff"
           data-original="#fff"
           class=""
           id="path12262" /></g></g></g></svg>
