<?xml version="1.0" encoding="UTF-8" standalone="no"?>
<!-- Created with Inkscape (http://www.inkscape.org/) -->

<svg
   width="350mm"
   height="150mm"
   viewBox="0 0 350 150"
   version="1.1"
   id="svg422"
   xml:space="preserve"
   inkscape:version="1.2.2 (732a01da63, 2022-12-09)"
   sodipodi:docname="SSLUP_Logo_Text_Inkscape.svg"
   inkscape:export-filename="C:\Users\tkoessler\Documents\Git\enny\enny-cloud-app-service\frontend\public\img\logo-text.svg"
   inkscape:export-xdpi="96"
   inkscape:export-ydpi="96"
   xmlns:inkscape="http://www.inkscape.org/namespaces/inkscape"
   xmlns:sodipodi="http://sodipodi.sourceforge.net/DTD/sodipodi-0.dtd"
   xmlns:xlink="http://www.w3.org/1999/xlink"
   xmlns="http://www.w3.org/2000/svg"
   xmlns:svg="http://www.w3.org/2000/svg"><sodipodi:namedview
     id="namedview424"
     pagecolor="#ffffff"
     bordercolor="#666666"
     borderopacity="1.0"
     inkscape:showpageshadow="2"
     inkscape:pageopacity="0.0"
     inkscape:pagecheckerboard="0"
     inkscape:deskcolor="#d1d1d1"
     inkscape:document-units="mm"
     showgrid="false"
     inkscape:zoom="0.52221046"
     inkscape:cx="541.9271"
     inkscape:cy="553.41672"
     inkscape:window-width="1920"
     inkscape:window-height="1009"
     inkscape:window-x="-8"
     inkscape:window-y="-8"
     inkscape:window-maximized="1"
     inkscape:current-layer="text768" /><defs
     id="defs419"><rect
       x="593.63037"
       y="180.00404"
       width="859.80658"
       height="304.47495"
       id="rect770" /><linearGradient
       inkscape:collect="always"
       id="linearGradient929-7"><stop
         style="stop-color:#3498db;stop-opacity:1;"
         offset="0"
         id="stop925-9" /><stop
         style="stop-color:#21618c;stop-opacity:1;"
         offset="1"
         id="stop927-3" /></linearGradient><inkscape:path-effect
       effect="fillet_chamfer"
       id="path-effect236-2"
       is_visible="true"
       lpeversion="1"
       nodesatellites_param="F,0,0,1,0,2.6458333,0,1 @ F,0,0,1,0,2.6458333,0,1 @ F,0,0,1,0,2.6458333,0,1 @ F,0,0,1,0,2.6458333,0,1 @ F,0,0,1,0,2.6458333,0,1 @ F,0,0,1,0,2.6458333,0,1"
       unit="px"
       method="auto"
       mode="F"
       radius="10"
       chamfer_steps="1"
       flexible="false"
       use_knot_distance="true"
       apply_no_radius="true"
       apply_with_radius="true"
       only_selected="false"
       hide_knots="false" /><linearGradient
       inkscape:collect="always"
       xlink:href="#linearGradient929-7"
       id="linearGradient931-9"
       x1="1.0133215"
       y1="46.106091"
       x2="100.82541"
       y2="46.106091"
       gradientUnits="userSpaceOnUse" /><filter
       style="color-interpolation-filters:sRGB"
       inkscape:label="Drop Shadow"
       id="filter20743-4"
       x="-0.072146297"
       y="-0.076551989"
       width="1.1743535"
       height="1.1399055"><feFlood
         flood-opacity="0.498039"
         flood-color="rgb(0,0,0)"
         result="flood"
         id="feFlood20733-9" /><feComposite
         in="flood"
         in2="SourceGraphic"
         operator="in"
         result="composite1"
         id="feComposite20735-9" /><feGaussianBlur
         in="composite1"
         stdDeviation="3"
         result="blur"
         id="feGaussianBlur20737-5" /><feOffset
         dx="3"
         dy="-1.5"
         result="offset"
         id="feOffset20739-8" /><feComposite
         in="SourceGraphic"
         in2="offset"
         operator="over"
         result="composite2"
         id="feComposite20741-6" /></filter></defs><g
     inkscape:label="Ebene 1"
     inkscape:groupmode="layer"
     id="layer1"
     transform="translate(-7.8817825,-15.763568)"><g
       aria-label="ENNY"
       transform="matrix(0.26458333,0,0,0.26458333,-3.5646269,6.8929369)"
       id="text768"
       style="font-size:266.667px;line-height:1.25;font-family:Nunito;-inkscape-font-specification:'Nunito, @wght=700';font-variation-settings:'wght' 700;white-space:pre;shape-inside:url(#rect770);display:inline;fill:#4d4d4d"><g
         aria-label="SSLUP"
         id="text1793"
         style="font-size:40px;font-family:sans-serif;fill:#000000"><path
           d="m 637.09492,403.99137 q -10.56,0 -21.12,-1.68 -10.56,-1.44 -19.92,-4.56 -9.36,-3.36 -16.8,-8.16 -4.32,-2.88 -6,-6.96 -1.68,-4.08 -1.2,-7.92 0.72,-4.08 3.12,-6.96 2.64,-3.12 6.48,-3.84 3.84,-0.72 8.4,2.16 10.56,6.24 22.32,9.12 11.76,2.88 24.72,2.88 18.96,0 27.6,-6.24 8.64,-6.48 8.64,-16.56 0,-8.4 -6.24,-13.2 -6,-4.8 -20.88,-7.92 l -26.4,-5.52 q -22.8,-4.8 -34.08,-16.08 -11.04,-11.52 -11.04,-30.24 0,-11.76 4.8,-21.36 4.8,-9.6 13.44,-16.56 8.88,-6.96 20.88,-10.56 12.24,-3.84 26.88,-3.84 14.4,0 27.36,3.6 12.96,3.6 23.28,10.56 3.84,2.64 5.04,6.48 1.44,3.84 0.72,7.68 -0.72,3.6 -3.36,6.24 -2.64,2.64 -6.72,3.12 -3.84,0.48 -8.88,-2.4 -8.88,-5.04 -18,-7.2 -9.12,-2.16 -19.68,-2.16 -11.04,0 -18.96,3.12 -7.92,3.12 -12.24,8.88 -4.08,5.52 -4.08,13.2 0,8.64 5.76,13.92 5.76,5.04 19.68,7.92 l 26.16,5.52 q 23.76,5.04 35.28,15.84 11.76,10.8 11.76,28.8 0,11.52 -4.8,20.88 -4.56,9.36 -13.44,16.08 -8.64,6.72 -20.88,10.32 -12.24,3.6 -27.6,3.6 z"
           style="font-size:240px;font-family:Nunito;fill:#4d4d4d"
           id="path327" /><path
           d="m 788.53505,403.99137 q -10.56,0 -21.12,-1.68 -10.56,-1.44 -19.92,-4.56 -9.36,-3.36 -16.8,-8.16 -4.32,-2.88 -6,-6.96 -1.68,-4.08 -1.2,-7.92 0.72,-4.08 3.12,-6.96 2.64,-3.12 6.48,-3.84 3.84,-0.72 8.4,2.16 10.56,6.24 22.32,9.12 11.76,2.88 24.72,2.88 18.96,0 27.6,-6.24 8.64,-6.48 8.64,-16.56 0,-8.4 -6.24,-13.2 -6,-4.8 -20.88,-7.92 l -26.4,-5.52 q -22.8,-4.8 -34.08,-16.08 -11.04,-11.52 -11.04,-30.24 0,-11.76 4.8,-21.36 4.8,-9.6 13.44,-16.56 8.88,-6.96 20.88,-10.56 12.24,-3.84 26.88,-3.84 14.4,0 27.36,3.6 12.96,3.6 23.28,10.56 3.84,2.64 5.04,6.48 1.44,3.84 0.72,7.68 -0.72,3.6 -3.36,6.24 -2.64,2.64 -6.72,3.12 -3.84,0.48 -8.88,-2.4 -8.88,-5.04 -18,-7.2 -9.12,-2.16 -19.68,-2.16 -11.04,0 -18.96,3.12 -7.92,3.12 -12.24,8.88 -4.08,5.52 -4.08,13.2 0,8.64 5.76,13.92 5.76,5.04 19.68,7.92 l 26.16,5.52 q 23.76,5.04 35.28,15.84 11.76,10.8 11.76,28.8 0,11.52 -4.8,20.88 -4.56,9.36 -13.44,16.08 -8.64,6.72 -20.88,10.32 -12.24,3.6 -27.6,3.6 z"
           style="font-size:240px;font-family:Nunito;fill:#4d4d4d"
           id="path329" /><path
           d="m 897.25517,401.59137 q -7.44,0 -11.52,-4.08 -4.08,-4.32 -4.08,-11.76 v -138.48 q 0,-7.68 3.84,-11.52 4.08,-4.08 11.52,-4.08 7.44,0 11.28,4.08 4.08,3.84 4.08,11.52 v 128.16 h 69.6 q 6.48,0 9.84,3.36 3.6,3.36 3.6,9.6 0,6.24 -3.6,9.84 -3.36,3.36 -9.84,3.36 z"
           style="font-size:240px;font-family:Nunito;fill:#4d4d4d"
           id="path331" /><path
           d="m 1080.1353,403.99137 q -17.52,0 -30.96,-4.56 -13.2,-4.56 -22.32,-13.44 -9.12,-9.12 -13.68,-22.56 -4.56,-13.44 -4.56,-31.2 v -86.16 q 0,-7.92 3.84,-11.76 4.08,-3.84 11.52,-3.84 7.44,0 11.28,3.84 4.08,3.84 4.08,11.76 v 85.92 q 0,22.8 10.32,34.32 10.56,11.28 30.48,11.28 19.92,0 30.24,-11.28 10.32,-11.52 10.32,-34.32 v -85.92 q 0,-7.92 3.84,-11.76 4.08,-3.84 11.52,-3.84 7.2,0 11.04,3.84 4.08,3.84 4.08,11.76 v 86.16 q 0,23.52 -8.16,39.6 -7.92,16.08 -23.76,24.24 -15.84,7.92 -39.12,7.92 z"
           style="font-size:240px;font-family:Nunito;fill:#4d4d4d"
           id="path333" /><path
           d="m 1202.2954,403.51137 q -7.44,0 -11.52,-4.08 -3.84,-4.32 -3.84,-11.76 v -139.68 q 0,-7.68 4.08,-11.52 4.08,-4.08 11.52,-4.08 h 57.84 q 27.84,0 42.96,13.92 15.12,13.92 15.12,38.88 0,24.96 -15.12,39.12 -15.12,13.92 -42.96,13.92 h -42.72 v 49.44 q 0,7.44 -3.84,11.76 -3.84,4.08 -11.52,4.08 z m 15.36,-89.52 h 37.92 q 16.32,0 24.72,-7.2 8.4,-7.44 8.4,-21.6 0,-14.16 -8.4,-21.36 -8.4,-7.2 -24.72,-7.2 h -37.92 z"
           style="font-size:240px;font-family:Nunito;fill:#4d4d4d"
           id="path335" /></g></g><g
       id="g307"
       transform="translate(4.8769571,20.763568)"><g
         inkscape:label="Ebene 1"
         id="layer1-7"
         transform="translate(8.7567849,6.7185259)"><path
           sodipodi:type="star"
           style="fill:url(#linearGradient931-9);fill-opacity:1;stroke:#000000;stroke-width:0;stroke-opacity:1;filter:url(#filter20743-4)"
           id="path234-1"
           inkscape:flatsided="true"
           sodipodi:sides="6"
           sodipodi:cx="50.919365"
           sodipodi:cy="46.106091"
           sodipodi:r1="57.533283"
           sodipodi:r2="49.825287"
           sodipodi:arg1="0.52078456"
           sodipodi:arg2="1.0443833"
           inkscape:rounded="0"
           inkscape:randomized="0"
           d="M 98.537781,76.061759 53.368903,102.30979 a 4.5827177,4.5827177 179.83876 0 1 -4.5827,0.0129 L 3.4703056,76.3293 A 4.5827177,4.5827177 59.838757 0 1 1.1677869,72.367014 L 1.0207679,20.125605 A 4.5827177,4.5827177 119.83876 0 1 3.3009488,16.150422 L 48.469827,-10.097605 a 4.5827177,4.5827177 179.83876 0 1 4.5827,-0.0129 l 45.315897,25.993383 a 4.5827177,4.5827177 59.838757 0 1 2.302516,3.962286 l 0.14702,52.24141 a 4.5827177,4.5827177 119.83876 0 1 -2.280179,3.975182 z"
           inkscape:path-effect="#path-effect236-2"
           transform="rotate(60,41.307456,61.960467)" /></g><g
         id="layer2-7"
         inkscape:label="Ebene 2"
         transform="translate(8.7567849,6.7185259)"><g
           data-name="12-Lock"
           id="g4927"
           transform="matrix(1.33305,0,0,1.33305,39.914415,41.952674)"><path
             d="M 23,12 V 8.71 A 6.72,6.72 0 0 0 16.29,2 H 15.71 A 6.72,6.72 0 0 0 9,8.71 V 12 a 3,3 0 0 0 -3,3 v 9.3 a 5.71,5.71 0 0 0 5.7,5.7 h 8.6 A 5.71,5.71 0 0 0 26,24.3 V 15 A 3,3 0 0 0 23,12 Z M 11,8.71 A 4.71,4.71 0 0 1 15.71,4 h 0.58 A 4.71,4.71 0 0 1 21,8.71 V 12 H 11 Z M 24,24.3 A 3.7,3.7 0 0 1 20.3,28 H 11.7 A 3.7,3.7 0 0 1 8,24.3 V 15 a 1,1 0 0 1 1,-1 h 14 a 1,1 0 0 1 1,1 z"
             fill="#ffffff"
             data-original="#fff"
             class=""
             id="path4923" /><path
             d="M 17,20.72 V 24 a 1,1 0 0 1 -2,0 v -3.28 a 2,2 0 1 1 2,0 z"
             fill="#ffffff"
             data-original="#fff"
             class=""
             id="path4925" /></g><g
           style="fill-rule:evenodd"
           id="g12275"
           transform="matrix(3.4894831,0,0,3.4894831,19.369413,21.408551)"><g
             id="g12264"><path
               d="m 12,20.95 c -4.945,0 -8.96,-4.015 -8.96,-8.96 A 8.954,8.954 0 0 1 6.85,4.659 0.75004967,0.75004967 0 0 0 5.987,3.432 10.451,10.451 0 0 0 1.54,11.99 c 0,5.773 4.687,10.46 10.46,10.46 a 0.75,0.75 0 0 0 0,-1.5 z M 12.578,3.048 c 4.676,0.298 8.382,4.191 8.382,8.942 a 8.94,8.94 0 0 1 -3.153,6.821 0.75014882,0.75014882 0 0 0 0.973,1.142 10.437,10.437 0 0 0 3.68,-7.963 C 22.46,6.443 18.133,1.899 12.673,1.551 a 0.75000567,0.75000567 0 0 0 -0.095,1.497 z"
               fill="#ffffff"
               data-original="#fff"
               class=""
               id="path12260" /><path
               d="m 21.29,19.185 h -3.244 v -3.244 a 0.75,0.75 0 0 0 -1.5,0 v 3.994 c 0,0.414 0.336,0.75 0.75,0.75 h 3.994 a 0.75,0.75 0 0 0 0,-1.5 z M 3.29,3.913 h 3.243 v 3.243 a 0.75,0.75 0 0 0 1.5,0 V 3.163 A 0.75,0.75 0 0 0 7.283,2.413 H 3.29 a 0.75,0.75 0 0 0 0,1.5 z"
               fill="#ffffff"
               data-original="#fff"
               class=""
               id="path12262" /></g></g></g></g></g></svg>
